<svg width="512" height="512" viewBox="0 0 512 512" fill="none" xmlns="http://www.w3.org/2000/svg">
  <defs>
    <linearGradient id="bg" x1="56" y1="56" x2="456" y2="456" gradientUnits="userSpaceOnUse">
      <stop offset="0" stop-color="#081226"/>
      <stop offset="1" stop-color="#0A1C34"/>
    </linearGradient>
    <linearGradient id="accent" x1="116" y1="112" x2="396" y2="392" gradientUnits="userSpaceOnUse">
      <stop offset="0" stop-color="#48E8FF"/>
      <stop offset="1" stop-color="#60FFAE"/>
    </linearGradient>
  </defs>

  <!-- outer shell with hard chamfers -->
  <path d="M112 40H400L472 112V400L400 472H112L40 400V112L112 40Z" fill="url(#bg)"/>
  <path d="M112 40H400L472 112V400L400 472H112L40 400V112L112 40Z" stroke="#2A4D76" stroke-width="4"/>

  <!-- inner frame -->
  <path d="M142 96H370L416 142V370L370 416H142L96 370V142L142 96Z" stroke="#1F3E62" stroke-width="3"/>

  <!-- TU monogram tuned for balance -->
  <path d="M112 172C156 104 356 104 400 172C344 146 168 146 112 172Z" fill="url(#accent)"/>
  <rect x="247" y="174" width="18" height="84" rx="9" fill="url(#accent)"/>
  <path d="M166 290C166 376 346 376 346 290" stroke="url(#accent)" stroke-width="56" stroke-linecap="round"/>
</svg>
